<svg width="20" height="20" viewBox="0 0 20 20" fill="none" xmlns="http://www.w3.org/2000/svg">
<g clip-path="url(#clip0_805_112)">
<path d="M8.84533 14.8297C8.56417 15.4735 7.67313 15.4735 7.392 14.8297L6.66062 13.1545C6.00976 11.6638 4.83824 10.4772 3.37692 9.8285L1.36382 8.93491C0.72378 8.65083 0.72378 7.71973 1.36382 7.43563L3.31404 6.56995C4.81294 5.9046 6.00547 4.674 6.64522 3.13243L7.38608 1.34727C7.66099 0.684801 8.57633 0.6848 8.85125 1.34727L9.59208 3.13245C10.2318 4.674 11.4243 5.9046 12.9232 6.56995L14.8735 7.43563C15.5135 7.71973 15.5135 8.65083 14.8735 8.93491L12.8604 9.8285C11.3991 10.4772 10.2276 11.6638 9.57667 13.1545L8.84533 14.8297ZM3.78297 8.18528C5.68783 9.03083 7.23668 10.4207 8.11865 12.333C9.00067 10.4207 10.5495 9.03083 12.4543 8.18528C10.5267 7.32964 8.973 5.87205 8.11866 3.92573C7.26432 5.87206 5.71056 7.32964 3.78297 8.18528ZM16.1678 18.9082L16.3735 18.4368C16.7402 17.5963 17.4006 16.9271 18.2246 16.561L18.8582 16.2794C19.201 16.1272 19.201 15.6291 18.8582 15.4768L18.2601 15.211C17.4148 14.8355 16.7426 14.1415 16.3822 13.2724L16.171 12.763C16.0237 12.408 15.5329 12.408 15.3857 12.763L15.1745 13.2724C14.8142 14.1415 14.1419 14.8355 13.2967 15.211L12.6984 15.4768C12.3557 15.6291 12.3557 16.1272 12.6984 16.2794L13.3321 16.561C14.1562 16.9271 14.8165 17.5963 15.1832 18.4368L15.3889 18.9082C15.5394 19.2533 16.0172 19.2533 16.1678 18.9082ZM15.3121 15.8724L15.7808 15.4069L16.2398 15.8724L15.7808 16.3248L15.3121 15.8724Z" fill="url(#paint0_linear_805_112)"/>
</g>
<defs>
<linearGradient id="paint0_linear_805_112" x1="9.99955" y1="1.18271" x2="9.99955" y2="17.2228" gradientUnits="userSpaceOnUse">
<stop stop-color="white"/>
<stop offset="1" stop-color="#B795FF"/>
</linearGradient>
<clipPath id="clip0_805_112">
<rect width="20" height="20" fill="white"/>
</clipPath>
</defs>
</svg>
